<?xml version="1.0" standalone="no"?>
<!DOCTYPE svg PUBLIC "-//W3C//DTD SVG 20010904//EN"
 "http://www.w3.org/TR/2001/REC-SVG-20010904/DTD/svg10.dtd">
<svg version="1.0" xmlns="http://www.w3.org/2000/svg"
 width="512.000000pt" height="512.000000pt" viewBox="0 0 512.000000 512.000000"
 preserveAspectRatio="xMidYMid meet">

<g transform="translate(0.000000,512.000000) scale(0.100000,-0.100000)"
fill="#000000" stroke="none">
<path d="M2354 5110 c-500 -42 -969 -226 -1374 -538 -109 -85 -347 -323 -432
-432 -436 -566 -618 -1251 -518 -1950 64 -440 239 -850 519 -1210 81 -105 311
-337 410 -415 563 -442 1238 -630 1940 -539 451 58 890 246 1261 538 97 76
320 299 396 396 292 370 476 804 540 1270 23 169 23 491 0 659 -40 295 -111
528 -241 796 -340 699 -985 1205 -1750 1374 -216 48 -535 69 -751 51z m1493
-2235 c48 -20 71 -41 94 -87 17 -33 19 -61 19 -228 0 -167 -2 -195 -19 -228
-23 -46 -46 -67 -94 -87 -32 -13 -184 -15 -1287 -15 -1103 0 -1255 2 -1287 15
-48 20 -71 41 -94 87 -17 33 -19 61 -19 228 0 167 2 195 19 228 23 45 46 66
91 86 31 13 195 15 1288 16 1105 0 1257 -2 1289 -15z"/>
</g>
</svg>
